<svg width="199" height="78" viewBox="0 0 199 78" fill="none" xmlns="http://www.w3.org/2000/svg">
<rect x="0.5" width="198" height="78" rx="13" fill="#F7F7FF"/>
<path d="M23.0251 33.6672L27.1056 31.3139L24.8279 27.371H46.2488L35.5418 45.9224L33.2641 41.9727L29.1837 44.3329L35.5418 55.3427L54.4097 22.6575H16.667L23.0251 33.6672Z" fill="#73779C"/>
<path d="M71.3383 49.3536L79.4852 30.022H75.5912L69.847 44.0512L64.0751 30.022H60.1812L68.3281 49.3536H71.3383Z" fill="#73779C"/>
<path d="M84.0915 30.022V49.3536H98.4798V45.9291H87.7922V41.2896H96.8228V37.8651H87.7922V33.4464H98.3417V30.022H84.0915Z" fill="#73779C"/>
<path d="M103.79 30.022V49.3536H107.491V42.5323H111.992L116.052 49.3536H120.167L115.748 41.8971C117.985 40.9029 119.421 38.7764 119.421 36.2633C119.421 34.4959 118.786 33.0046 117.488 31.8171C116.217 30.6295 114.643 30.022 112.738 30.022H103.79ZM112.738 33.4464C114.367 33.4464 115.555 34.6339 115.555 36.2633C115.555 37.8927 114.367 39.1078 112.738 39.1078H107.491V33.4464H112.738Z" fill="#73779C"/>
<path d="M130.062 33.4464V49.3536H133.79V33.4464H140.197V30.022H123.655V33.4464H130.062Z" fill="#73779C"/>
<path d="M145.236 30.022V49.3536H159.625V45.9291H148.937V41.2896H157.968V37.8651H148.937V33.4464H159.487V30.022H145.236Z" fill="#73779C"/>
<path d="M170.762 39.4945L163.582 49.3536H168.028L172.971 42.5323L177.915 49.3536H182.333L175.181 39.4945L182.057 30.022H177.639L172.971 36.4566L168.304 30.022H163.858L170.762 39.4945Z" fill="#73779C"/>
</svg>
