<svg width="198" height="78" viewBox="0 0 198 78" fill="none" xmlns="http://www.w3.org/2000/svg">
<rect x="0.5" width="197" height="78" rx="13" fill="#F7F7FF"/>
<path d="M32.5329 27.1534L33.9018 25.7844C36.5901 23.0962 40.9665 23.0297 43.6702 25.7024C44.6947 26.7174 45.3755 28.0278 45.6171 29.4496C45.8586 30.8714 45.6486 32.3331 45.0166 33.6294C44.7135 34.2487 44.6114 34.9471 44.7244 35.6272C44.8376 36.3073 45.1603 36.9351 45.6475 37.4229C46.5435 36.5249 47.2535 35.4592 47.7374 34.2866C48.2213 33.1141 48.4695 31.8577 48.4677 30.5892C48.4658 29.3207 48.2143 28.065 47.727 26.8939C47.2398 25.7227 46.5266 24.659 45.6281 23.7635C41.8475 20.0042 35.7108 20.079 31.9408 23.8489L18.8925 36.8968L17.8198 35.8241C15.086 33.0903 15.0686 28.6216 17.8506 25.9363C18.8804 24.9455 20.1924 24.2986 21.6055 24.0851C23.0185 23.8716 24.463 24.1019 25.7396 24.7443C26.3223 25.0429 26.9844 25.1497 27.6314 25.0495C28.2785 24.9493 28.8772 24.6472 29.3423 24.1863L29.3756 24.1532C29.3859 24.1429 29.3941 24.1307 29.3997 24.1172C29.4053 24.1038 29.4082 24.0893 29.4082 24.0747C29.4082 24.0601 29.4053 24.0457 29.3997 24.0322C29.3941 24.0187 29.3859 24.0065 29.3756 23.9962C27.5797 22.2454 25.1731 21.262 22.665 21.2541C20.1569 21.2461 17.744 22.2142 15.9371 23.9536C12.0447 27.7112 12.0586 33.9597 15.8843 37.7853L28.9286 50.8297L27.543 52.2154C24.8548 54.9036 20.4781 54.9701 17.7746 52.2974C16.7501 51.2824 16.0693 49.9719 15.8278 48.5502C15.5863 47.1285 15.7962 45.6668 16.428 44.3704C16.7311 43.7511 16.8333 43.0527 16.7202 42.3727C16.6072 41.6925 16.2845 41.0646 15.7973 40.5769C14.9014 41.475 14.1912 42.5406 13.7073 43.7131C13.2234 44.8858 12.9753 46.142 12.9771 47.4106C12.9789 48.6791 13.2306 49.9348 13.7178 51.1059C14.205 52.2771 14.9182 53.3409 15.8167 54.2363C19.5971 57.9958 25.734 57.9212 29.5041 54.1511L42.5692 41.0858L43.6459 42.1625C46.3342 44.8507 46.4007 49.2272 43.728 51.9307C42.713 52.9554 41.4025 53.636 39.9808 53.8777C38.5591 54.1192 37.0974 53.9092 35.8009 53.2773C35.1815 52.974 34.4827 52.8718 33.8024 52.9851C33.122 53.0983 32.494 53.4213 32.0062 53.9089C32.9043 54.8048 33.97 55.5151 35.1424 55.999C36.3151 56.4829 37.5714 56.7311 38.84 56.7293C40.1084 56.7274 41.3642 56.4757 42.5352 55.9884C43.7065 55.5012 44.7702 54.7879 45.6656 53.8895C49.4251 50.1091 49.3503 43.9722 45.5804 40.2023L32.5329 27.1534ZM30.8765 48.881L20.8409 38.8453L30.5843 29.1021L40.6199 39.1377L30.8765 48.881Z" fill="#73779C"/>
<path d="M65.1283 50.638C63.1313 50.638 61.6047 50.0521 60.5484 48.8803C59.5004 47.7085 58.9145 46.1076 58.7907 44.0776L61.9595 43.2854C62.1163 46.4542 63.1726 48.0386 65.1283 48.0386C66.7127 48.0386 67.5049 47.2464 67.5049 45.662C67.5049 45.1917 67.4389 44.7584 67.3069 44.3623C67.1831 43.958 66.9892 43.5907 66.7251 43.2607C66.461 42.9223 66.2217 42.6541 66.0072 42.4561C65.7926 42.2498 65.4997 41.9981 65.1283 41.701L61.1673 38.5322C60.4411 37.9628 59.8593 37.2407 59.422 36.366C58.9929 35.483 58.7783 34.4804 58.7783 33.3581C58.7783 31.7242 59.2858 30.4245 60.3008 29.459C61.3158 28.4935 62.6609 28.0107 64.3361 28.0107C66.1351 28.0107 67.5627 28.4522 68.619 29.3352C69.6835 30.2099 70.3395 31.4519 70.5871 33.061C70.6119 33.2343 70.6407 33.4736 70.6737 33.779L67.5049 34.5712C67.4967 34.4309 67.4761 34.2205 67.443 33.9399C67.3028 32.9331 66.9851 32.1285 66.4899 31.5261C66.003 30.9155 65.2851 30.6102 64.3361 30.6102C63.5769 30.6102 62.991 30.8247 62.5784 31.2538C62.1658 31.6747 61.9595 32.2647 61.9595 33.0239C61.9595 34.27 62.4876 35.3139 63.5439 36.1556L67.5049 39.3244C69.6175 41.0326 70.6737 43.075 70.6737 45.4516C70.6737 47.0773 70.1704 48.3481 69.1636 49.2641C68.1651 50.1801 66.82 50.638 65.1283 50.638Z" fill="#73779C"/>
<path d="M77.2961 48.0386C78.1295 48.0386 78.9217 47.8241 79.6727 47.395V37.5914C79.6397 37.5749 79.5572 37.5254 79.4251 37.4429C79.2931 37.3604 79.1982 37.3068 79.1404 37.282C79.0909 37.249 79.0043 37.1995 78.8805 37.1335C78.7567 37.0674 78.6535 37.0221 78.571 36.9973C78.4968 36.9643 78.3977 36.9313 78.2739 36.8983C78.1584 36.857 78.0429 36.8281 77.9274 36.8116C77.8201 36.7951 77.7046 36.7869 77.5808 36.7869C77.3167 36.7869 77.0815 36.8488 76.8752 36.9725C76.6772 37.0881 76.5121 37.2284 76.3801 37.3934C76.2481 37.5584 76.1325 37.7936 76.0335 38.099C75.9427 38.4043 75.8767 38.6766 75.8354 38.9159C75.7942 39.147 75.7612 39.4606 75.7364 39.8567C75.7117 40.2445 75.6952 40.5457 75.6869 40.7603C75.6869 40.9748 75.6869 41.276 75.6869 41.6639C75.6869 41.6804 75.6869 41.6928 75.6869 41.701C75.6869 41.8413 75.6869 42.0682 75.6869 42.3818C75.6869 42.6954 75.6869 42.9966 75.6869 43.2854C75.6869 43.5742 75.6869 43.8466 75.6869 44.1024C75.6952 44.6553 75.7199 45.1421 75.7612 45.563C75.8107 45.9756 75.8891 46.3841 75.9964 46.7884C76.1119 47.1845 76.2769 47.494 76.4915 47.7168C76.7143 47.9314 76.9825 48.0386 77.2961 48.0386ZM79.6727 55.1685V48.9917C79.2023 49.4786 78.7154 49.8747 78.2121 50.1801C77.7169 50.4854 77.1475 50.638 76.5039 50.638C75.8932 50.638 75.3486 50.4854 74.8699 50.1801C74.3996 49.8665 74.02 49.4662 73.7312 48.9794C73.4506 48.4925 73.2154 47.919 73.0256 47.2588C72.8441 46.5904 72.7161 45.9343 72.6419 45.2907C72.5759 44.647 72.5429 43.9786 72.5429 43.2854V40.8717C72.5429 40.1537 72.5759 39.4977 72.6419 38.9035C72.7079 38.3094 72.8276 37.7235 73.0008 37.1458C73.1741 36.5682 73.4011 36.0813 73.6816 35.6852C73.9705 35.2809 74.3501 34.959 74.8204 34.7197C75.2908 34.4721 75.8354 34.3484 76.4544 34.3484C76.8092 34.3484 77.1393 34.3979 77.4446 34.4969C77.7582 34.5877 78.0553 34.7362 78.3358 34.9425C78.6247 35.1488 78.8475 35.3304 79.0043 35.4872C79.1693 35.6357 79.3921 35.8585 79.6727 36.1556V34.5712H82.8415V55.1685H79.6727Z" fill="#73779C"/>
<path d="M87.6442 50.638C86.951 50.638 86.394 50.3946 85.9732 49.9077C85.5523 49.4126 85.3419 48.802 85.3419 48.0758V34.5712H88.5107V47.1103C88.5107 47.4404 88.6097 47.7085 88.8078 47.9148C89.0141 48.1212 89.2781 48.2243 89.6 48.2243C89.7733 48.2243 89.9424 48.2037 90.1075 48.1624C90.2725 48.1212 90.4334 48.051 90.5902 47.952C90.7553 47.8447 90.8832 47.7622 90.974 47.7044C91.0647 47.6384 91.1926 47.5311 91.3577 47.3826C91.531 47.234 91.6383 47.1433 91.6795 47.1103V34.5712H94.8483V50.4152H91.6795V48.7071C91.3659 48.9794 91.1349 49.1774 90.9863 49.3012C90.8461 49.425 90.6274 49.5942 90.3303 49.8087C90.0332 50.015 89.7691 50.1677 89.5381 50.2667C89.3153 50.3575 89.0347 50.44 88.6964 50.5143C88.358 50.5968 88.0073 50.638 87.6442 50.638Z" fill="#73779C"/>
<path d="M101.953 48.0386C102.176 48.0386 102.391 47.9726 102.597 47.8406C102.812 47.7085 102.973 47.5806 103.08 47.4569C103.187 47.3331 103.319 47.168 103.476 46.9617C103.501 46.9205 103.521 46.8916 103.538 46.8751V42.4932C103.406 42.584 103.187 42.7243 102.882 42.9141C102.576 43.1039 102.333 43.2607 102.151 43.3844C101.97 43.5 101.751 43.665 101.495 43.8796C101.24 44.0859 101.042 44.288 100.901 44.4861C100.761 44.6759 100.637 44.9111 100.53 45.1917C100.423 45.4722 100.369 45.7652 100.369 46.0705C100.369 47.3826 100.897 48.0386 101.953 48.0386ZM100.369 50.638C99.486 50.638 98.7351 50.2584 98.1162 49.4993C97.5055 48.7318 97.2002 47.8695 97.2002 46.9122C97.2002 46.1448 97.3281 45.4475 97.5839 44.8203C97.848 44.1931 98.1244 43.6939 98.4132 43.3225C98.7021 42.9429 99.1848 42.5551 99.8615 42.159C100.538 41.7546 101.05 41.4782 101.396 41.3297C101.743 41.1811 102.345 40.9377 103.204 40.5993C103.352 40.5416 103.464 40.4962 103.538 40.4632V39.3244C103.538 38.5239 103.426 37.905 103.204 37.4677C102.981 37.0221 102.564 36.7992 101.953 36.7992C101.409 36.7992 101.017 36.989 100.777 37.3686C100.546 37.74 100.414 38.2557 100.381 38.9159C100.373 39.0067 100.369 39.1428 100.369 39.3244H97.2002C97.2167 37.806 97.6417 36.5971 98.4751 35.6976C99.3086 34.7981 100.468 34.3484 101.953 34.3484C103.431 34.3484 104.59 34.8064 105.432 35.7223C106.282 36.6301 106.707 37.8308 106.707 39.3244V46.4542C106.707 48.1046 106.843 49.425 107.115 50.4152H103.959L103.538 48.0386C103.373 48.3687 103.237 48.6245 103.129 48.8061C103.03 48.9876 102.882 49.2146 102.684 49.4869C102.486 49.7509 102.288 49.9572 102.09 50.1058C101.892 50.2461 101.644 50.3699 101.347 50.4771C101.05 50.5844 100.724 50.638 100.369 50.638Z" fill="#73779C"/>
<path d="M109.442 50.4152V34.5712H112.611V36.6878C112.933 36.0607 113.399 35.516 114.01 35.0539C114.629 34.5836 115.314 34.3484 116.065 34.3484C116.089 34.3484 116.258 34.3649 116.572 34.3979V37.9009C115.986 37.6698 115.4 37.5543 114.814 37.5543C114.154 37.5543 113.622 37.7524 113.218 38.1485C112.813 38.5446 112.611 39.0686 112.611 39.7205V50.4152H109.442Z" fill="#73779C"/>
<path d="M122.39 50.638C121.622 50.638 120.954 50.506 120.385 50.2419C119.823 49.9779 119.374 49.6354 119.035 49.2146C118.705 48.7854 118.437 48.2408 118.231 47.5806C118.024 46.9122 117.88 46.2479 117.797 45.5878C117.723 44.9193 117.678 44.1436 117.661 43.2607C117.637 42.5675 117.637 41.8743 117.661 41.1811C117.686 40.3559 117.74 39.6256 117.822 38.9902C117.913 38.3465 118.066 37.7235 118.28 37.1211C118.495 36.5187 118.771 36.0235 119.11 35.6357C119.456 35.2478 119.906 34.9384 120.459 34.7073C121.02 34.468 121.672 34.3484 122.415 34.3484C123.091 34.3484 123.685 34.4391 124.197 34.6207C124.717 34.794 125.146 35.0622 125.484 35.4253C125.831 35.7801 126.116 36.1762 126.338 36.6136C126.569 37.0509 126.743 37.5832 126.858 38.2104C126.974 38.8293 127.052 39.4399 127.093 40.0423C127.143 40.6447 127.168 41.3379 127.168 42.1219V42.4932H120.83V43.2854C120.83 43.3927 120.83 43.5619 120.83 43.7929C120.814 44.0982 120.809 44.416 120.818 44.746C120.834 45.0679 120.851 45.3856 120.867 45.6992C120.884 46.0127 120.929 46.3139 121.003 46.6028C121.078 46.8833 121.168 47.1309 121.276 47.3455C121.383 47.56 121.532 47.7292 121.721 47.853C121.919 47.9767 122.15 48.0386 122.415 48.0386C122.745 48.0386 123.017 47.9767 123.231 47.853C123.446 47.7209 123.603 47.527 123.702 47.2712C123.809 47.0154 123.883 46.7596 123.925 46.5037C123.966 46.2479 123.991 45.9261 123.999 45.5382V44.8698H127.143V45.5011C127.069 47.1928 126.652 48.4719 125.893 49.3383C125.134 50.2048 123.966 50.638 122.39 50.638ZM120.83 40.9088H123.974V39.9557C123.966 39.5348 123.941 39.1676 123.9 38.854C123.859 38.5404 123.784 38.2269 123.677 37.9133C123.578 37.5997 123.421 37.3604 123.207 37.1953C122.992 37.0303 122.728 36.9478 122.415 36.9478C122.093 36.9478 121.82 37.0344 121.598 37.2077C121.383 37.381 121.222 37.6327 121.115 37.9628C121.016 38.2846 120.946 38.6023 120.904 38.9159C120.863 39.2295 120.838 39.605 120.83 40.0423V40.9088Z" fill="#73779C"/>
<path d="M135.387 50.638C133.39 50.638 131.863 50.0521 130.807 48.8803C129.759 47.7085 129.173 46.1076 129.049 44.0776L132.218 43.2854C132.375 46.4542 133.431 48.0386 135.387 48.0386C136.971 48.0386 137.763 47.2464 137.763 45.662C137.763 45.1917 137.697 44.7584 137.565 44.3623C137.442 43.958 137.248 43.5907 136.984 43.2607C136.72 42.9223 136.48 42.6541 136.266 42.4561C136.051 42.2498 135.758 41.9981 135.387 41.701L131.426 38.5322C130.7 37.9628 130.118 37.2407 129.681 36.366C129.251 35.483 129.037 34.4804 129.037 33.3581C129.037 31.7242 129.544 30.4245 130.559 29.459C131.574 28.4935 132.919 28.0107 134.595 28.0107C136.394 28.0107 137.821 28.4522 138.878 29.3352C139.942 30.2099 140.598 31.4519 140.846 33.061C140.87 33.2343 140.899 33.4736 140.932 33.779L137.763 34.5712C137.755 34.4309 137.735 34.2205 137.702 33.9399C137.561 32.9331 137.244 32.1285 136.748 31.5261C136.262 30.9155 135.544 30.6102 134.595 30.6102C133.835 30.6102 133.25 30.8247 132.837 31.2538C132.424 31.6747 132.218 32.2647 132.218 33.0239C132.218 34.27 132.746 35.3139 133.802 36.1556L137.763 39.3244C139.876 41.0326 140.932 43.075 140.932 45.4516C140.932 47.0773 140.429 48.3481 139.422 49.2641C138.424 50.1801 137.079 50.638 135.387 50.638Z" fill="#73779C"/>
<path d="M147.505 50.638C146.259 50.638 145.351 50.3203 144.782 49.6849C144.221 49.0495 143.932 48.0881 143.915 46.8008V36.9478H142.331V34.5712H143.915V29.0258H147.084V34.5712H149.461V36.9478H147.084V46.1943C147.084 46.8297 147.171 47.2959 147.344 47.593C147.517 47.8901 147.868 48.0386 148.396 48.0386C148.627 48.0386 148.982 47.9974 149.461 47.9148V50.4895C148.669 50.5885 148.017 50.638 147.505 50.638Z" fill="#73779C"/>
<path d="M159.784 49.1527C159.05 50.1429 157.833 50.638 156.133 50.638C154.433 50.638 153.216 50.1429 152.481 49.1527C151.747 48.1624 151.379 46.7348 151.379 44.8698V40.1166C151.379 38.2516 151.747 36.824 152.481 35.8337C153.216 34.8435 154.433 34.3484 156.133 34.3484C157.833 34.3484 159.05 34.8435 159.784 35.8337C160.519 36.824 160.886 38.2516 160.886 40.1166V44.8698C160.886 46.7348 160.519 48.1624 159.784 49.1527ZM155.539 47.9396C155.712 48.0056 155.91 48.0386 156.133 48.0386C156.355 48.0386 156.549 48.0056 156.714 47.9396C156.888 47.8736 157.028 47.7952 157.135 47.7044C157.251 47.6054 157.346 47.4651 157.42 47.2836C157.494 47.0938 157.552 46.9287 157.593 46.7884C157.635 46.6481 157.663 46.446 157.68 46.1819C157.696 45.9178 157.705 45.7115 157.705 45.563C157.713 45.4062 157.717 45.1751 157.717 44.8698V40.1166C157.717 39.8113 157.713 39.5843 157.705 39.4358C157.705 39.279 157.696 39.0686 157.68 38.8045C157.663 38.5404 157.635 38.3383 157.593 38.198C157.552 38.0577 157.494 37.8968 157.42 37.7152C157.346 37.5254 157.251 37.3851 157.135 37.2944C157.028 37.1953 156.888 37.1128 156.714 37.0468C156.549 36.9808 156.355 36.9478 156.133 36.9478C155.91 36.9478 155.712 36.9808 155.539 37.0468C155.373 37.1128 155.233 37.1953 155.118 37.2944C155.01 37.3851 154.92 37.5254 154.845 37.7152C154.771 37.8968 154.713 38.0577 154.672 38.198C154.631 38.3383 154.602 38.5404 154.585 38.8045C154.569 39.0686 154.557 39.279 154.548 39.4358C154.548 39.5843 154.548 39.8113 154.548 40.1166V44.8698C154.548 45.1751 154.548 45.4062 154.548 45.563C154.557 45.7115 154.569 45.9178 154.585 46.1819C154.602 46.446 154.631 46.6481 154.672 46.7884C154.713 46.9287 154.771 47.0938 154.845 47.2836C154.92 47.4651 155.01 47.6054 155.118 47.7044C155.233 47.7952 155.373 47.8736 155.539 47.9396Z" fill="#73779C"/>
<path d="M163.485 50.4152V34.5712H166.654V36.2794C167.124 35.8503 167.508 35.5243 167.805 35.3015C168.102 35.0704 168.511 34.8559 169.031 34.6578C169.559 34.4515 170.12 34.3484 170.714 34.3484C171.391 34.3484 171.94 34.5959 172.36 35.0911C172.781 35.5862 172.992 36.1927 172.992 36.9107V50.4152H169.823V38.5322C169.823 37.9793 169.745 37.5791 169.588 37.3315C169.431 37.0757 169.113 36.9478 168.635 36.9478C168.362 36.9478 168.09 37.0055 167.818 37.1211C167.554 37.2284 167.356 37.3315 167.224 37.4305C167.091 37.5213 166.902 37.6698 166.654 37.8761V50.4152H163.485Z" fill="#73779C"/>
<path d="M180.245 50.638C179.478 50.638 178.809 50.506 178.24 50.2419C177.679 49.9779 177.229 49.6354 176.891 49.2146C176.561 48.7854 176.293 48.2408 176.086 47.5806C175.88 46.9122 175.736 46.2479 175.653 45.5878C175.579 44.9193 175.533 44.1436 175.517 43.2607C175.492 42.5675 175.492 41.8743 175.517 41.1811C175.542 40.3559 175.595 39.6256 175.678 38.9902C175.769 38.3465 175.921 37.7235 176.136 37.1211C176.35 36.5187 176.627 36.0235 176.965 35.6357C177.312 35.2478 177.761 34.9384 178.314 34.7073C178.876 34.468 179.527 34.3484 180.27 34.3484C180.947 34.3484 181.541 34.4391 182.053 34.6207C182.572 34.794 183.002 35.0622 183.34 35.4253C183.687 35.7801 183.971 36.1762 184.194 36.6136C184.425 37.0509 184.598 37.5832 184.714 38.2104C184.829 38.8293 184.908 39.4399 184.949 40.0423C184.999 40.6447 185.023 41.3379 185.023 42.1219V42.4932H178.686V43.2854C178.686 43.3927 178.686 43.5619 178.686 43.7929C178.669 44.0982 178.665 44.416 178.673 44.746C178.69 45.0679 178.706 45.3856 178.723 45.6992C178.739 46.0127 178.785 46.3139 178.859 46.6028C178.933 46.8833 179.024 47.1309 179.131 47.3455C179.239 47.56 179.387 47.7292 179.577 47.853C179.775 47.9767 180.006 48.0386 180.27 48.0386C180.6 48.0386 180.873 47.9767 181.087 47.853C181.302 47.7209 181.458 47.527 181.557 47.2712C181.665 47.0154 181.739 46.7596 181.78 46.5037C181.822 46.2479 181.846 45.9261 181.855 45.5382V44.8698H184.999V45.5011C184.924 47.1928 184.508 48.4719 183.748 49.3383C182.989 50.2048 181.822 50.638 180.245 50.638ZM178.686 40.9088H181.83V39.9557C181.822 39.5348 181.797 39.1676 181.756 38.854C181.714 38.5404 181.64 38.2269 181.533 37.9133C181.434 37.5997 181.277 37.3604 181.062 37.1953C180.848 37.0303 180.584 36.9478 180.27 36.9478C179.948 36.9478 179.676 37.0344 179.453 37.2077C179.239 37.381 179.078 37.6327 178.97 37.9628C178.871 38.2846 178.801 38.6023 178.76 38.9159C178.719 39.2295 178.694 39.605 178.686 40.0423V40.9088Z" fill="#73779C"/>
</svg>
